@startuml
skinparam defaultTextAlignment left
caption Behavior of thing Button
[*] --> Button
state Button{
state RELEASED{

RELEASED --> PRESSED : clock?ms25_tic[is_pressed()]\naction evt!press()\n
}
state PRESSED{

PRESSED --> RELEASED : clock?ms25_tic[not is_pressed()]\naction evt!release()\n
}
[*] --> RELEASED
}
@enduml
